<svg xmlns="http://www.w3.org/2000/svg" xmlns:svg="http://www.w3.org/2000/svg" id="svg12452" width="12" height="12" version="1.1" viewBox="0 0 12 12"><metadata id="metadata12457"/><g id="layer1" transform="translate(-35.001409,-1037.3824)"><g id="semi-starred" display="inline" transform="matrix(0.74758516,0,0,0.74758516,-135.40366,292.82621)"><g id="g14175"><rect id="rect14177" width="16" height="16" x="228" y="996" fill="none" stroke="none" stroke-width="2" color="#bebebe" display="inline" enable-background="accumulate" overflow="visible" visibility="visible" style="marker:none"/></g><path id="path14181" fill="#bebebe" fill-opacity="1" stroke="none" stroke-width="1.05" d="m 235.97025,997.26354 c -0.92654,-0.003 -1.28788,2.74946 -2.03971,3.27206 -0.75154,0.5223 -4.55493,-0.2105 -4.84454,0.6385 -0.28973,0.8492 3.18686,3.1307 3.46954,3.9822 0.28257,0.851 -1.24718,3.6906 -0.5,4.2187 0.74748,0.5283 2.95692,-1.9589 3.88346,-1.9552 -1.40068,-1.0338 -0.063,0.3038 0.0312,0 z" color="#000" display="inline" enable-background="accumulate" overflow="visible" visibility="visible" style="marker:none"/><path id="path5520-9" fill="none" stroke="#bebebe" stroke-dasharray="none" stroke-miterlimit="4" stroke-opacity="1" stroke-width="1.338" d="m 240.30778,1010.011 c -0.84451,0.5943 -3.35412,-2.686 -4.39906,-2.6958 -1.06159,-0.011 -3.67349,3.2106 -4.53328,2.6094 -0.84625,-0.5918 1.4685,-4.1187 1.15561,-5.0813 -0.31794,-0.9779 -4.15726,-2.7218 -3.83059,-3.6974 0.32153,-0.9598 4.06079,-0.1132 4.91229,-0.6977 0.86516,-0.5942 1.30515,-3.7508 2.3668,-3.75222 1.04502,-10e-4 1.36637,3.14456 2.20554,3.74592 0.85261,0.6108 4.63873,-0.1303 4.9682,0.8444 0.32432,0.959 -3.5119,2.5904 -3.84477,3.5468 -0.3382,0.9719 1.85731,4.5743 0.99926,5.1779 z" color="#000" display="inline" enable-background="accumulate" overflow="visible" visibility="visible" style="marker:none"/></g></g></svg>