<svg xmlns="http://www.w3.org/2000/svg" xmlns:svg="http://www.w3.org/2000/svg" id="svg7384" width="400" height="400" version="1.1" viewBox="0 0 400 400"><metadata id="metadata90"/><title id="title9167">Gnome Symbolic Icon Theme</title><g id="layer12" display="inline" transform="translate(-569.10098,-463)"><path id="path998" fill="#d3d3ce" fill-opacity="1" stroke="#babdb6" stroke-dasharray="none" stroke-dashoffset="0" stroke-linecap="butt" stroke-linejoin="miter" stroke-miterlimit="4" stroke-opacity="1" stroke-width="2" marker-end="none" marker-mid="none" marker-start="none" d="M 796.7987,700.49286 785.485,805.91064 c -1.4142,7.77817 -2.1147,12.02082 -12.37439,12.02082 -8.7483,0 -13.7886,-8.13173 -12.3744,-13.43503 l 10.9602,-103.65002 -2.7427,-42.31549 c 1.84388,-33.1852 4.78127,-69.50208 -8.87344,-120.68474 0,0 9.64131,-33.39412 20.47184,-33.39412 27.618,0 34.26739,94.05373 28.26739,152.55373 z" color="#000" opacity="1" overflow="visible" paint-order="normal" vector-effect="none" style="marker:none"/><path id="path1014" fill="#eeeeec" fill-opacity="1" stroke="none" stroke-dasharray="none" stroke-dashoffset="0" stroke-linecap="butt" stroke-linejoin="bevel" stroke-miterlimit="4" stroke-opacity="1" stroke-width="1" marker-end="none" marker-mid="none" marker-start="none" d="m 772.51519,700.96967 c 0,0 3.08579,-85.93939 3.08579,-102.46967 0,-32.50096 -10.875,-69 -10.875,-69 l -2,11 c 0,0 6.50092,34.03122 7.5,46 2.16421,25.92678 -0.25,72.125 -0.25,72.125 z" color="#000" opacity=".214" overflow="visible" paint-order="normal" vector-effect="none" style="marker:none"/><path id="path961" fill="#fff" fill-opacity="1" stroke="#babdb6" stroke-dasharray="none" stroke-dashoffset="0" stroke-linecap="butt" stroke-linejoin="miter" stroke-miterlimit="4" stroke-opacity="1" stroke-width="2" marker-end="none" marker-mid="none" marker-start="none" d="m 730.51803,700.49286 11.31371,105.41778 c 1.41421,7.77817 2.11468,12.02082 12.37437,12.02082 8.74824,0 13.78858,-8.13173 12.37437,-13.43503 l -10.96016,-103.65002 4.24264,-46.31549 c 0,0 -2.85419,-96.27226 5.77817,-127.28964 1.76938,-6.35764 11.17945,-7.41852 11.19239,-7.41421 l 4.50781,-15.37957 -39.24443,-0.0884 c -8.66206,0 -12.24447,8.7244 -16.52862,24.66035 -11.09272,41.26212 -7.07107,127.98633 -7.07107,127.98633 z" color="#000" opacity="1" overflow="visible" paint-order="normal" vector-effect="none" style="marker:none"/><path id="path963" fill="#c5c8c2" fill-opacity="1" stroke="none" stroke-dasharray="none" stroke-dashoffset="0" stroke-linecap="butt" stroke-linejoin="bevel" stroke-miterlimit="4" stroke-opacity="1" stroke-width="1" marker-end="none" marker-mid="none" marker-start="none" d="m 780.78327,504.56102 c -10.60097,0 -18.4362,22.72054 -18.208,47.46453 -0.40528,0.20264 3.38204,-27.7829 14.67246,-27.57716 22.36942,0.40763 24.67001,128.58313 18.73833,177.13025 l 12.72793,-43.48706 c 3.82473,-34.11013 2.46402,-151.87491 -27.93072,-153.53056 z" color="#000" opacity="1" overflow="visible" paint-order="normal" vector-effect="none" style="marker:none"/><ellipse id="circle9318-4" cx="735.601" cy="600.947" fill="#c00" fill-opacity="1" fill-rule="nonzero" stroke="#a40000" stroke-dasharray="none" stroke-dashoffset="0" stroke-linecap="butt" stroke-linejoin="miter" stroke-miterlimit="4" stroke-opacity="1" stroke-width="1" marker-end="none" marker-mid="none" marker-start="none" clip-rule="nonzero" color="#000" color-interpolation="sRGB" color-interpolation-filters="linearRGB" color-rendering="auto" display="inline" enable-background="accumulate" image-rendering="auto" opacity="1" overflow="visible" paint-order="normal" rx="3.649" ry="3.628" shape-rendering="auto" text-rendering="auto" vector-effect="none" visibility="visible" style="isolation:auto;mix-blend-mode:normal;solid-color:#000;solid-opacity:1;marker:none"/><ellipse id="circle9320-7" cx="735.601" cy="611.5" fill="#eeeeec" fill-opacity="1" fill-rule="nonzero" stroke="#babdb6" stroke-dasharray="none" stroke-dashoffset="0" stroke-linecap="butt" stroke-linejoin="bevel" stroke-miterlimit="4" stroke-opacity="1" stroke-width="1" marker-end="none" marker-mid="none" marker-start="none" clip-rule="nonzero" color="#000" color-interpolation="sRGB" color-interpolation-filters="linearRGB" color-rendering="auto" display="inline" enable-background="accumulate" image-rendering="auto" opacity="1" overflow="visible" paint-order="normal" rx="3.649" ry="3.628" shape-rendering="auto" text-rendering="auto" vector-effect="none" visibility="visible" style="isolation:auto;mix-blend-mode:normal;solid-color:#000;solid-opacity:1;marker:none"/><ellipse id="circle9322-8" cx="735.601" cy="622.053" fill="#c00" fill-opacity="1" fill-rule="nonzero" stroke="#a40000" stroke-dasharray="none" stroke-dashoffset="0" stroke-linecap="butt" stroke-linejoin="miter" stroke-miterlimit="4" stroke-opacity="1" stroke-width="1" marker-end="none" marker-mid="none" marker-start="none" clip-rule="nonzero" color="#000" color-interpolation="sRGB" color-interpolation-filters="linearRGB" color-rendering="auto" display="inline" enable-background="accumulate" image-rendering="auto" opacity="1" overflow="visible" paint-order="normal" rx="3.649" ry="3.628" shape-rendering="auto" text-rendering="auto" vector-effect="none" visibility="visible" style="isolation:auto;mix-blend-mode:normal;solid-color:#000;solid-opacity:1;marker:none"/><ellipse clip-rule="nonzero" style="isolation:auto;mix-blend-mode:normal;solid-color:#000;solid-opacity:1;marker:none" id="ellipse1083" cx="735.851" cy="633.75" fill="#eeeeec" fill-opacity="1" fill-rule="nonzero" stroke="#babdb6" stroke-dasharray="none" stroke-dashoffset="0" stroke-linecap="butt" stroke-linejoin="bevel" stroke-miterlimit="4" stroke-opacity="1" stroke-width="1" marker-end="none" marker-mid="none" marker-start="none" color="#000" color-interpolation="sRGB" color-interpolation-filters="linearRGB" color-rendering="auto" display="inline" enable-background="accumulate" image-rendering="auto" opacity="1" overflow="visible" paint-order="normal" rx="1.649" ry="1.638" shape-rendering="auto" text-rendering="auto" vector-effect="none" visibility="visible"/><path id="ellipse1099" fill="#eeeeec" fill-opacity="1" fill-rule="nonzero" stroke="#babdb6" stroke-dasharray="none" stroke-dashoffset="0" stroke-linecap="butt" stroke-linejoin="bevel" stroke-miterlimit="4" stroke-opacity="1" stroke-width="1" marker-end="none" marker-mid="none" marker-start="none" d="m 675.26301,864.52948 a 2.3048751,2.2914796 0 0 1 -2.30488,2.29148 2.3048751,2.2914796 0 0 1 -2.30488,-2.29148 2.3048751,2.2914796 0 0 1 2.30488,-2.29148 2.3048751,2.2914796 0 0 1 2.30488,2.29148 z m 0,-10.12164 a 2.3048751,2.2914796 0 0 1 -2.30488,2.29148 2.3048751,2.2914796 0 0 1 -2.30488,-2.29148 2.3048751,2.2914796 0 0 1 2.30488,-2.29148 2.3048751,2.2914796 0 0 1 2.30488,2.29148 z m 0,-10.12165 a 2.3048751,2.2914796 0 0 1 -2.30488,2.29148 2.3048751,2.2914796 0 0 1 -2.30488,-2.29148 2.3048751,2.2914796 0 0 1 2.30488,-2.29148 2.3048751,2.2914796 0 0 1 2.30488,2.29148 z m 0,-10.12164 a 2.3048751,2.2914796 0 0 1 -2.30488,2.29148 2.3048751,2.2914796 0 0 1 -2.30488,-2.29148 2.3048751,2.2914796 0 0 1 2.30488,-2.29148 2.3048751,2.2914796 0 0 1 2.30488,2.29148 z m 0,-10.12164 a 2.3048751,2.2914796 0 0 1 -2.30488,2.29148 2.3048751,2.2914796 0 0 1 -2.30488,-2.29148 2.3048751,2.2914796 0 0 1 2.30488,-2.29148 2.3048751,2.2914796 0 0 1 2.30488,2.29148 z m 0,-10.12165 a 2.3048751,2.2914796 0 0 1 -2.30488,2.29148 2.3048751,2.2914796 0 0 1 -2.30488,-2.29148 2.3048751,2.2914796 0 0 1 2.30488,-2.29147 2.3048751,2.2914796 0 0 1 2.30488,2.29147 z m 0,-10.12158 a 2.3048751,2.2914796 0 0 1 -2.30488,2.29148 2.3048751,2.2914796 0 0 1 -2.30488,-2.29148 2.3048751,2.2914796 0 0 1 2.30488,-2.29148 2.3048751,2.2914796 0 0 1 2.30488,2.29148 z m 0,-10.12164 a 2.3048751,2.2914796 0 0 1 -2.30488,2.29148 2.3048751,2.2914796 0 0 1 -2.30488,-2.29148 2.3048751,2.2914796 0 0 1 2.30488,-2.29148 2.3048751,2.2914796 0 0 1 2.30488,2.29148 z" clip-rule="nonzero" color="#000" color-interpolation="sRGB" color-interpolation-filters="linearRGB" color-rendering="auto" display="inline" enable-background="accumulate" image-rendering="auto" opacity="1" overflow="visible" paint-order="normal" shape-rendering="auto" text-rendering="auto" transform="rotate(-5.4454142)" vector-effect="none" visibility="visible" style="isolation:auto;mix-blend-mode:normal;solid-color:#000;solid-opacity:1;marker:none"/><path clip-rule="nonzero" style="isolation:auto;mix-blend-mode:normal;solid-color:#000;solid-opacity:1;marker:none" id="path1129" fill="#eeeeec" fill-opacity="1" fill-rule="nonzero" stroke="#babdb6" stroke-dasharray="none" stroke-dashoffset="0" stroke-linecap="butt" stroke-linejoin="bevel" stroke-miterlimit="4" stroke-opacity="1" stroke-width="1" marker-end="none" marker-mid="none" marker-start="none" d="m 675.26301,864.52948 a 2.3048751,2.2914796 0 0 1 -2.30488,2.29148 2.3048751,2.2914796 0 0 1 -2.30488,-2.29148 2.3048751,2.2914796 0 0 1 2.30488,-2.29148 2.3048751,2.2914796 0 0 1 2.30488,2.29148 z m 0,-10.12164 a 2.3048751,2.2914796 0 0 1 -2.30488,2.29148 2.3048751,2.2914796 0 0 1 -2.30488,-2.29148 2.3048751,2.2914796 0 0 1 2.30488,-2.29148 2.3048751,2.2914796 0 0 1 2.30488,2.29148 z m 0,-10.12165 a 2.3048751,2.2914796 0 0 1 -2.30488,2.29148 2.3048751,2.2914796 0 0 1 -2.30488,-2.29148 2.3048751,2.2914796 0 0 1 2.30488,-2.29148 2.3048751,2.2914796 0 0 1 2.30488,2.29148 z m 0,-10.12164 a 2.3048751,2.2914796 0 0 1 -2.30488,2.29148 2.3048751,2.2914796 0 0 1 -2.30488,-2.29148 2.3048751,2.2914796 0 0 1 2.30488,-2.29148 2.3048751,2.2914796 0 0 1 2.30488,2.29148 z m 0,-10.12164 a 2.3048751,2.2914796 0 0 1 -2.30488,2.29148 2.3048751,2.2914796 0 0 1 -2.30488,-2.29148 2.3048751,2.2914796 0 0 1 2.30488,-2.29148 2.3048751,2.2914796 0 0 1 2.30488,2.29148 z m 0,-10.12165 a 2.3048751,2.2914796 0 0 1 -2.30488,2.29148 2.3048751,2.2914796 0 0 1 -2.30488,-2.29148 2.3048751,2.2914796 0 0 1 2.30488,-2.29147 2.3048751,2.2914796 0 0 1 2.30488,2.29147 z m 0,-10.12158 a 2.3048751,2.2914796 0 0 1 -2.30488,2.29148 2.3048751,2.2914796 0 0 1 -2.30488,-2.29148 2.3048751,2.2914796 0 0 1 2.30488,-2.29148 2.3048751,2.2914796 0 0 1 2.30488,2.29148 z m 0,-10.12164 a 2.3048751,2.2914796 0 0 1 -2.30488,2.29148 2.3048751,2.2914796 0 0 1 -2.30488,-2.29148 2.3048751,2.2914796 0 0 1 2.30488,-2.29148 2.3048751,2.2914796 0 0 1 2.30488,2.29148 z" color="#000" color-interpolation="sRGB" color-interpolation-filters="linearRGB" color-rendering="auto" display="inline" enable-background="accumulate" image-rendering="auto" opacity="1" overflow="visible" paint-order="normal" shape-rendering="auto" text-rendering="auto" transform="rotate(-5.4454142)" vector-effect="none" visibility="visible"/><path clip-rule="nonzero" style="isolation:auto;mix-blend-mode:normal;solid-color:#000;solid-opacity:1;marker:none" id="path1133" fill="#babdb6" fill-opacity="1" fill-rule="nonzero" stroke="none" stroke-dasharray="none" stroke-dashoffset="0" stroke-linecap="butt" stroke-linejoin="bevel" stroke-miterlimit="4" stroke-opacity="1" stroke-width="1" marker-end="none" marker-mid="none" marker-start="none" d="m 772.44461,796.54721 a 2.3048751,2.2914796 5.4454142 0 0 2.07702,2.49987 2.3048751,2.2914796 5.4454142 0 0 2.51194,-2.06242 2.3048751,2.2914796 5.4454142 0 0 -2.07703,-2.49986 2.3048751,2.2914796 5.4454142 0 0 -2.51193,2.06241 z m 0.96052,-10.07596 a 2.3048751,2.2914796 5.4454142 0 0 2.07702,2.49986 2.3048751,2.2914796 5.4454142 0 0 2.51193,-2.06241 2.3048751,2.2914796 5.4454142 0 0 -2.07702,-2.49986 2.3048751,2.2914796 5.4454142 0 0 -2.51193,2.06241 z m 0.96051,-10.07597 a 2.3048751,2.2914796 5.4454142 0 0 2.07703,2.49986 2.3048751,2.2914796 5.4454142 0 0 2.51193,-2.06241 2.3048751,2.2914796 5.4454142 0 0 -2.07702,-2.49986 2.3048751,2.2914796 5.4454142 0 0 -2.51194,2.06241 z m 0.96052,-10.07596 a 2.3048751,2.2914796 5.4454142 0 0 2.07702,2.49986 2.3048751,2.2914796 5.4454142 0 0 2.51194,-2.06241 2.3048751,2.2914796 5.4454142 0 0 -2.07703,-2.49987 2.3048751,2.2914796 5.4454142 0 0 -2.51193,2.06242 z m 0.96052,-10.07597 a 2.3048751,2.2914796 5.4454142 0 0 2.07702,2.49987 2.3048751,2.2914796 5.4454142 0 0 2.51193,-2.06241 2.3048751,2.2914796 5.4454142 0 0 -2.07702,-2.49987 2.3048751,2.2914796 5.4454142 0 0 -2.51193,2.06241 z m 0.96052,-10.07597 a 2.3048751,2.2914796 5.4454142 0 0 2.07702,2.49987 2.3048751,2.2914796 5.4454142 0 0 2.51193,-2.06241 2.3048751,2.2914796 5.4454142 0 0 -2.07702,-2.49986 2.3048751,2.2914796 5.4454142 0 0 -2.51193,2.0624 z m 0.96051,-10.0759 a 2.3048751,2.2914796 5.4454142 0 0 2.07702,2.49987 2.3048751,2.2914796 5.4454142 0 0 2.51193,-2.06242 2.3048751,2.2914796 5.4454142 0 0 -2.07702,-2.49986 2.3048751,2.2914796 5.4454142 0 0 -2.51193,2.06241 z m 0.96052,-10.07596 a 2.3048751,2.2914796 5.4454142 0 0 2.07702,2.49986 2.3048751,2.2914796 5.4454142 0 0 2.51193,-2.06241 2.3048751,2.2914796 5.4454142 0 0 -2.07702,-2.49986 2.3048751,2.2914796 5.4454142 0 0 -2.51193,2.06241 z" color="#000" color-interpolation="sRGB" color-interpolation-filters="linearRGB" color-rendering="auto" display="inline" enable-background="accumulate" image-rendering="auto" opacity="1" overflow="visible" paint-order="normal" shape-rendering="auto" text-rendering="auto" vector-effect="none" visibility="visible"/></g></svg>