<svg xmlns="http://www.w3.org/2000/svg" xmlns:svg="http://www.w3.org/2000/svg" id="svg7384" width="16" height="16" version="1.1" viewBox="0 0 16 16"><metadata id="metadata90"/><title id="title9167">Gnome Symbolic Icon Theme</title><g id="layer12" transform="translate(-140.0002,-645.96875)"><path id="path27918" fill="#fff" fill-opacity="1" stroke="none" stroke-width="1.555" d="m 6.5078125,1.0273438 c -3.02886,0 -5.51171875,2.4784862 -5.51171875,5.5039062 0,3.02541 2.48285875,5.503906 5.51171875,5.503906 1.154233,0 2.2269469,-0.361543 3.1152344,-0.974609 L 13.3125,14.75 a 1.0054782,1.0054782 0 1 0 1.40625,-1.4375 L 11.044922,9.6386719 C 11.656779,8.752271 12.017578,7.6822094 12.017578,6.53125 c 0,-3.02542 -2.4809155,-5.5039062 -5.5097655,-5.5039062 z m 0,2.0078124 c 1.94735,0 3.4999995,1.5509438 3.4999995,3.4960938 0,1.94514 -1.5526495,3.496094 -3.4999995,3.496094 -1.94736,0 -3.5,-1.550954 -3.5,-3.496094 0,-1.94515 1.55264,-3.4960938 3.5,-3.4960938 z" baseline-shift="baseline" color="#000" direction="ltr" display="inline" enable-background="new" font-family="Sans" font-size="medium" font-stretch="normal" font-style="normal" font-variant="normal" font-weight="normal" letter-spacing="normal" overflow="visible" text-anchor="start" text-decoration="none" transform="translate(140.0002,645.96875)" visibility="visible" word-spacing="normal" writing-mode="lr-tb" style="line-height:normal;-inkscape-font-specification:Sans;text-indent:0;text-align:start;text-decoration-line:none;text-transform:none;marker:none"/></g></svg>